<svg width="24" height="24" viewBox="0 0 24 24" fill="none" xmlns="http://www.w3.org/2000/svg">
<rect width="24" height="24" rx="4" fill="#FCFCFC"/>
<path d="M5.70741 19.707C5.5188 19.8892 5.2662 19.99 5.00401 19.9877C4.74181 19.9854 4.491 19.8802 4.30559 19.6948C4.12018 19.5094 4.01501 19.2586 4.01273 18.9964C4.01045 18.7342 4.11125 18.4816 4.29341 18.293L8.46441 14.121C8.92872 13.6566 9.47997 13.2882 10.0867 13.0368C10.6934 12.7854 11.3437 12.6561 12.0004 12.6561C12.6571 12.6561 13.3074 12.7854 13.9141 13.0368C14.5208 13.2882 15.0721 13.6566 15.5364 14.121L19.7074 18.293C19.8896 18.4816 19.9904 18.7342 19.9881 18.9964C19.9858 19.2586 19.8806 19.5094 19.6952 19.6948C19.5098 19.8802 19.259 19.9854 18.9968 19.9877C18.7346 19.99 18.482 19.8892 18.2934 19.707L14.1214 15.536C13.5588 14.9736 12.7959 14.6576 12.0004 14.6576C11.2049 14.6576 10.442 14.9736 9.87941 15.536L5.70741 19.707Z" fill="#B3FFAD"/>
<path d="M5.69471 4.28071C5.50611 4.09855 5.25351 3.99776 4.99131 4.00004C4.72911 4.00232 4.4783 4.10749 4.29289 4.29289C4.10749 4.4783 4.00232 4.72911 4.00004 4.99131C3.99776 5.25351 4.09855 5.50611 4.28071 5.69471L8.45171 9.86771C8.91602 10.3321 9.46728 10.7006 10.074 10.9519C10.6807 11.2033 11.331 11.3326 11.9877 11.3326C12.6444 11.3326 13.2947 11.2033 13.9014 10.9519C14.5081 10.7006 15.0594 10.3321 15.5237 9.86771L19.6947 5.69571C19.8769 5.50711 19.9777 5.25451 19.9754 4.99231C19.9731 4.73011 19.8679 4.4793 19.6825 4.29389C19.4971 4.10849 19.2463 4.00332 18.9841 4.00104C18.7219 3.99876 18.4693 4.09955 18.2807 4.28171L14.1077 8.45171C13.5451 9.01412 12.7822 9.33007 11.9867 9.33007C11.1912 9.33007 10.4283 9.01412 9.86571 8.45171L5.69471 4.28071Z" fill="#CF84EE"/>
</svg>
