<svg width="71" height="24" viewBox="0 0 71 24" fill="none" xmlns="http://www.w3.org/2000/svg">
<path d="M5.70741 19.707C5.5188 19.8892 5.2662 19.99 5.00401 19.9877C4.74181 19.9854 4.491 19.8802 4.30559 19.6948C4.12018 19.5094 4.01501 19.2586 4.01273 18.9964C4.01045 18.7342 4.11125 18.4816 4.29341 18.293L8.46441 14.121C8.92872 13.6566 9.47997 13.2882 10.0867 13.0368C10.6934 12.7854 11.3437 12.6561 12.0004 12.6561C12.6571 12.6561 13.3074 12.7854 13.9141 13.0368C14.5208 13.2882 15.0721 13.6566 15.5364 14.121L19.7074 18.293C19.8896 18.4816 19.9904 18.7342 19.9881 18.9964C19.9858 19.2586 19.8806 19.5094 19.6952 19.6948C19.5098 19.8802 19.259 19.9854 18.9968 19.9877C18.7346 19.99 18.482 19.8892 18.2934 19.707L14.1214 15.536C13.5588 14.9736 12.7959 14.6576 12.0004 14.6576C11.2049 14.6576 10.442 14.9736 9.87941 15.536L5.70741 19.707Z" fill="#133882"/>
<path d="M5.69471 4.28071C5.50611 4.09855 5.25351 3.99776 4.99131 4.00004C4.72911 4.00232 4.4783 4.10749 4.29289 4.29289C4.10749 4.4783 4.00232 4.72911 4.00004 4.99131C3.99776 5.25351 4.09855 5.50611 4.28071 5.69471L8.45171 9.86771C8.91602 10.3321 9.46728 10.7006 10.074 10.9519C10.6807 11.2033 11.331 11.3326 11.9877 11.3326C12.6444 11.3326 13.2947 11.2033 13.9014 10.9519C14.5081 10.7006 15.0594 10.3321 15.5237 9.86771L19.6947 5.69571C19.8769 5.50711 19.9777 5.25451 19.9754 4.99231C19.9731 4.73011 19.8679 4.4793 19.6825 4.29389C19.4971 4.10849 19.2463 4.00332 18.9841 4.00104C18.7219 3.99876 18.4693 4.09955 18.2807 4.28171L14.1077 8.45171C13.5451 9.01412 12.7822 9.33007 11.9867 9.33007C11.1912 9.33007 10.4283 9.01412 9.86571 8.45171L5.69471 4.28071Z" fill="#849709"/>
<path d="M28.8807 15V7.72727H31.3381C31.9086 7.72727 32.375 7.83026 32.7372 8.03622C33.1018 8.23982 33.3717 8.51562 33.5469 8.86364C33.7221 9.21165 33.8097 9.59991 33.8097 10.0284C33.8097 10.4569 33.7221 10.8464 33.5469 11.1967C33.3741 11.5471 33.1065 11.8265 32.7443 12.0348C32.3821 12.2408 31.9181 12.3438 31.3523 12.3438H29.5909V11.5625H31.3239C31.7145 11.5625 32.0282 11.495 32.2649 11.3601C32.5017 11.2251 32.6733 11.0429 32.7798 10.8132C32.8887 10.5812 32.9432 10.3196 32.9432 10.0284C32.9432 9.73722 32.8887 9.4768 32.7798 9.24716C32.6733 9.01752 32.5005 8.83759 32.2614 8.70739C32.0223 8.57481 31.705 8.50852 31.3097 8.50852H29.7614V15H28.8807ZM35.9147 15V9.54545H36.7244V10.3693H36.7812C36.8806 10.0994 37.0605 9.88045 37.321 9.71236C37.5814 9.54427 37.8749 9.46023 38.2016 9.46023C38.2632 9.46023 38.3401 9.46141 38.4325 9.46378C38.5248 9.46615 38.5946 9.4697 38.642 9.47443V10.3267C38.6136 10.3196 38.5485 10.3089 38.4467 10.2947C38.3472 10.2782 38.2419 10.2699 38.1306 10.2699C37.8655 10.2699 37.6287 10.3255 37.4204 10.4368C37.2144 10.5457 37.0511 10.6972 36.9303 10.8913C36.812 11.0831 36.7528 11.3021 36.7528 11.5483V15H35.9147ZM42.5563 15.1136C42.0308 15.1136 41.5774 14.9976 41.1962 14.7656C40.8174 14.5312 40.5251 14.2045 40.3191 13.7855C40.1155 13.3641 40.0137 12.8741 40.0137 12.3153C40.0137 11.7566 40.1155 11.2642 40.3191 10.8381C40.5251 10.4096 40.8115 10.0758 41.1785 9.83665C41.5478 9.59517 41.9787 9.47443 42.4711 9.47443C42.7552 9.47443 43.0357 9.52178 43.3127 9.61648C43.5897 9.71117 43.8418 9.86506 44.0691 10.0781C44.2964 10.2888 44.4775 10.5682 44.6124 10.9162C44.7474 11.2642 44.8148 11.6927 44.8148 12.2017V12.5568H40.6103V11.8324H43.9626C43.9626 11.5246 43.901 11.25 43.7779 11.0085C43.6572 10.767 43.4844 10.5765 43.2594 10.4368C43.0369 10.2971 42.7741 10.2273 42.4711 10.2273C42.1373 10.2273 41.8485 10.3101 41.6046 10.4759C41.3631 10.6392 41.1773 10.8523 41.0471 11.1151C40.9169 11.3778 40.8518 11.6596 40.8518 11.9602V12.4432C40.8518 12.8551 40.9228 13.2043 41.0648 13.4908C41.2093 13.7749 41.4093 13.9915 41.665 14.1406C41.9207 14.2874 42.2178 14.3608 42.5563 14.3608C42.7765 14.3608 42.9754 14.33 43.1529 14.2685C43.3328 14.2045 43.4879 14.1098 43.6181 13.9844C43.7483 13.8565 43.8489 13.6979 43.92 13.5085L44.7296 13.7358C44.6444 14.0104 44.5012 14.2519 44.2999 14.4602C44.0987 14.6662 43.8501 14.8272 43.5542 14.9432C43.2583 15.0568 42.9256 15.1136 42.5563 15.1136ZM51.1839 9.54545L49.1669 15H48.3146L46.2975 9.54545H47.2066L48.7123 13.892H48.7691L50.2748 9.54545H51.1839ZM53.0901 15V9.54545H53.9282V15H53.0901ZM53.5162 8.63636C53.3529 8.63636 53.212 8.58073 53.0936 8.46946C52.9776 8.35819 52.9196 8.22443 52.9196 8.06818C52.9196 7.91193 52.9776 7.77817 53.0936 7.6669C53.212 7.55563 53.3529 7.5 53.5162 7.5C53.6796 7.5 53.8193 7.55563 53.9353 7.6669C54.0536 7.77817 54.1128 7.91193 54.1128 8.06818C54.1128 8.22443 54.0536 8.35819 53.9353 8.46946C53.8193 8.58073 53.6796 8.63636 53.5162 8.63636ZM58.5501 15.1136C58.0245 15.1136 57.5711 14.9976 57.19 14.7656C56.8112 14.5312 56.5188 14.2045 56.3129 13.7855C56.1093 13.3641 56.0075 12.8741 56.0075 12.3153C56.0075 11.7566 56.1093 11.2642 56.3129 10.8381C56.5188 10.4096 56.8053 10.0758 57.1722 9.83665C57.5415 9.59517 57.9724 9.47443 58.4648 9.47443C58.7489 9.47443 59.0295 9.52178 59.3065 9.61648C59.5835 9.71117 59.8356 9.86506 60.0629 10.0781C60.2901 10.2888 60.4712 10.5682 60.6062 10.9162C60.7411 11.2642 60.8086 11.6927 60.8086 12.2017V12.5568H56.604V11.8324H59.9563C59.9563 11.5246 59.8948 11.25 59.7717 11.0085C59.6509 10.767 59.4781 10.5765 59.2532 10.4368C59.0307 10.2971 58.7679 10.2273 58.4648 10.2273C58.131 10.2273 57.8422 10.3101 57.5984 10.4759C57.3569 10.6392 57.171 10.8523 57.0408 11.1151C56.9106 11.3778 56.8455 11.6596 56.8455 11.9602V12.4432C56.8455 12.8551 56.9165 13.2043 57.0586 13.4908C57.203 13.7749 57.4031 13.9915 57.6587 14.1406C57.9144 14.2874 58.2115 14.3608 58.5501 14.3608C58.7702 14.3608 58.9691 14.33 59.1467 14.2685C59.3266 14.2045 59.4817 14.1098 59.6119 13.9844C59.7421 13.8565 59.8427 13.6979 59.9137 13.5085L60.7234 13.7358C60.6381 14.0104 60.4949 14.2519 60.2937 14.4602C60.0924 14.6662 59.8439 14.8272 59.5479 14.9432C59.252 15.0568 58.9194 15.1136 58.5501 15.1136ZM64.1192 15L62.4573 9.54545H63.338L64.517 13.7216H64.5738L65.7386 9.54545H66.6335L67.784 13.7074H67.8408L69.0198 9.54545H69.9005L68.2386 15H67.4147L66.2215 10.8097H66.1363L64.9431 15H64.1192Z" fill="#133882"/>
</svg>
