<svg width="16" height="16" viewBox="0 0 16 16" fill="none" xmlns="http://www.w3.org/2000/svg">
<path d="M1.70741 15.707C1.5188 15.8892 1.2662 15.99 1.00401 15.9877C0.741809 15.9854 0.490997 15.8802 0.305589 15.6948C0.120181 15.5094 0.0150115 15.2586 0.0127331 14.9964C0.0104547 14.7342 0.111249 14.4816 0.293408 14.293L4.46441 10.121C4.92872 9.65657 5.47997 9.28815 6.08669 9.0368C6.6934 8.78544 7.34369 8.65607 8.00041 8.65607C8.65713 8.65607 9.30742 8.78544 9.91413 9.0368C10.5208 9.28815 11.0721 9.65657 11.5364 10.121L15.7074 14.293C15.8896 14.4816 15.9904 14.7342 15.9881 14.9964C15.9858 15.2586 15.8806 15.5094 15.6952 15.6948C15.5098 15.8802 15.259 15.9854 14.9968 15.9877C14.7346 15.99 14.482 15.8892 14.2934 15.707L10.1214 11.536C9.55882 10.9736 8.7959 10.6576 8.00041 10.6576C7.20491 10.6576 6.44199 10.9736 5.87941 11.536L1.70741 15.707Z" fill="#B3FFAD"/>
<path d="M1.69471 0.280712C1.50611 0.0985542 1.25351 -0.00224062 0.991311 3.78025e-05C0.729114 0.00231622 0.478302 0.107485 0.292894 0.292894C0.107485 0.478302 0.00231622 0.729114 3.78025e-05 0.991311C-0.00224062 1.25351 0.0985542 1.50611 0.280712 1.69471L4.45171 5.86771C4.91602 6.33214 5.46728 6.70056 6.07399 6.95192C6.6807 7.20327 7.33099 7.33264 7.98771 7.33264C8.64443 7.33264 9.29472 7.20327 9.90143 6.95192C10.5081 6.70056 11.0594 6.33214 11.5237 5.86771L15.6947 1.69571C15.8769 1.50711 15.9777 1.25451 15.9754 0.992311C15.9731 0.730114 15.8679 0.479302 15.6825 0.293893C15.4971 0.108485 15.2463 0.00331663 14.9841 0.00103821C14.7219 -0.00124021 14.4693 0.0995541 14.2807 0.281712L10.1077 4.45171C9.54513 5.01412 8.7822 5.33007 7.98671 5.33007C7.19122 5.33007 6.4283 5.01412 5.86571 4.45171L1.69471 0.280712Z" fill="#CF84EE"/>
</svg>
